<?xml version="1.0" standalone="no"?><!DOCTYPE svg PUBLIC "-//W3C//DTD SVG 1.1//EN" "http://www.w3.org/Graphics/SVG/1.1/DTD/svg11.dtd"><svg t="1735293668801" class="icon" viewBox="0 0 1024 1024" version="1.1" xmlns="http://www.w3.org/2000/svg" p-id="18797" width="24" height="24" xmlns:xlink="http://www.w3.org/1999/xlink"><path d="M801 892.3l-64.1-63.4 0.1 67.1H128V128h384.2v217.6h4v4.3h220.1V441c11.2 7.7 21.8 16.5 31.7 26.3 12.4 12.2 23.2 25.6 32.3 39.9l-0.1-50.7V276.8L585.4 64H64v896h737v-67.7zM576.2 145l142.3 140.9H576.2V145z" fill="#727272" p-id="18798"></path><path d="M192 192h256v64H192z" fill="#497CAD" p-id="18799"></path><path d="M417.9 768H192v64h299.6c-18.6-10.3-35.9-23.1-51.4-38.5-8.1-8-15.5-16.5-22.3-25.5zM192 384v64h270.2c33.1-25.5 72.2-41.4 113.8-46.3V384H192z m180 246.4c0-18.6 2.2-36.8 6.5-54.4H192v64h180.2c-0.1-3.2-0.2-6.4-0.2-9.6z" fill="#E6C27C" p-id="18800" data-spm-anchor-id="a313x.collections_detail.0.i22.320f3a81Trqxjm" class="selected"></path><path d="M950.5 905.3L775.9 732.5c18.5-30.5 28.4-65.5 28.4-102.1 0-53.1-20.9-102.9-58.7-140.4-37.8-37.4-88-58-141.4-58s-103.6 20.6-141.4 58c-37.9 37.5-58.7 87.3-58.7 140.4s20.9 102.9 58.7 140.4c37.8 37.4 88 58 141.4 58 48.2 0 93.8-16.8 130-47.5l171.3 169.5c6.2 6.2 14.4 9.3 22.5 9.3 8.2 0 16.5-3.2 22.7-9.5 12.5-12.7 12.4-32.9-0.2-45.3zM604.2 764.8c-75.1 0-136.2-60.3-136.2-134.4S529.1 496 604.2 496s136.2 60.3 136.2 134.4-61.2 134.4-136.2 134.4z" fill="#497CAD" p-id="18801"></path></svg>