<?xml version="1.0" standalone="no"?><!DOCTYPE svg PUBLIC "-//W3C//DTD SVG 1.1//EN" "http://www.w3.org/Graphics/SVG/1.1/DTD/svg11.dtd"><svg t="1735293801987" class="icon" viewBox="0 0 1024 1024" version="1.1" xmlns="http://www.w3.org/2000/svg" p-id="19500" width="24" height="24" xmlns:xlink="http://www.w3.org/1999/xlink"><path d="M765 64H225.8l1.4 224.2 64-0.4-1-159.8h383.3v224H896v544H290.2l1-159.8-64-0.4-1.4 224.2H960V277.7L765 64z m117.7 224H737.5V128.8L882.7 288z" fill="#727272" p-id="19501"></path><path d="M461.7 383.4c2 0.4 4.1 0.6 6.3 0.6h113c17.7 0 32-14.3 32-32v-64c0-17.7-14.3-32-32-32H468c-17.7 0-32 14.3-32 32v64c0 2.1 0.2 4.2 0.6 6.2l25.1 25.2zM549 295c13.8 0 25 11.2 25 25s-11.2 25-25 25-25-11.2-25-25 11.2-25 25-25z m175 345H468c-2.1 0-4.2 0.2-6.3 0.6l-25.1 25.1c-0.4 2-0.6 4.1-0.6 6.2v64c0 17.7 14.3 32 32 32h256c17.7 0 32-14.3 32-32v-64c0-17.6-14.3-31.9-32-31.9z m-32 89c-13.8 0-25-11.2-25-25s11.2-25 25-25 25 11.2 25 25-11.2 25-25 25z m32-281H526.3l63.9 64-63.9 64H724c17.7 0 32-14.3 32-32v-64c0-17.7-14.3-32-32-32z m-32 89c-13.8 0-25-11.2-25-25s11.2-25 25-25 25 11.2 25 25-11.2 25-25 25z" fill="#E6C27C" p-id="19502"></path><path d="M336.9 349H198.6l98.9 98.9H64v128.2h233.5L198.6 675h138.3l162.9-163z" fill="#497CAD" p-id="19503"></path></svg>