<?xml version="1.0" standalone="no"?><!DOCTYPE svg PUBLIC "-//W3C//DTD SVG 1.1//EN" "http://www.w3.org/Graphics/SVG/1.1/DTD/svg11.dtd"><svg t="1735293780747" class="icon" viewBox="0 0 1024 1024" version="1.1" xmlns="http://www.w3.org/2000/svg" p-id="19258" width="24" height="24" xmlns:xlink="http://www.w3.org/1999/xlink"><path d="M765 64H225.8l1.4 224.2 64-0.4-1-159.8h383.3v224H896v544H290.2l1-159.8-64-0.4-1.4 224.2H960V277.7L765 64z m117.7 224H737.5V128.8L882.7 288z" fill="#727272" p-id="19259"></path><path d="M226.8 349h138.3l-98.8 98.9h233.5v128.2H266.3l98.8 98.9H226.8L64 512z" fill="#497CAD" p-id="19260"></path><path d="M468 384h113c17.7 0 32-14.3 32-32v-64c0-17.7-14.3-32-32-32H468c-17.7 0-32 14.3-32 32v64c0 17.7 14.3 32 32 32z m81-89c13.8 0 25 11.2 25 25s-11.2 25-25 25-25-11.2-25-25 11.2-25 25-25z m175 153H576v128h148c17.7 0 32-14.3 32-32v-64c0-17.7-14.3-32-32-32z m-32 89c-13.8 0-25-11.2-25-25s11.2-25 25-25 25 11.2 25 25-11.2 25-25 25z m32 103H468c-17.7 0-32 14.3-32 32v64c0 17.7 14.3 32 32 32h256c17.7 0 32-14.3 32-32v-64c0-17.7-14.3-32-32-32z m-32 89c-13.8 0-25-11.2-25-25s11.2-25 25-25 25 11.2 25 25-11.2 25-25 25z" fill="#E6C27C" p-id="19261"></path></svg>